<svg width="577" height="576" viewBox="0 0 577 576" fill="none" xmlns="http://www.w3.org/2000/svg">
<g clip-path="url(#clip0_952_19025)">
<g clip-path="url(#clip1_952_19025)">
<path d="M719.836 -143.336C432.279 -143.336 144.721 -143.336 -142.836 -143.336L-142.836 719.336L719.836 719.336C719.836 431.779 719.836 144.221 719.836 -143.336Z" fill="#00ADFF"/>
</g>
<path d="M300.027 292.904C324.312 164.909 341.603 142.712 394.617 146.823C436.068 150.038 484.265 209.87 440.761 339.153C398.853 463.772 306.385 485.923 239.197 446.101C190.478 417.201 152.068 354.799 137.526 320.377C114.639 266.258 102.612 207.108 132.74 174.834C157.406 148.388 185.754 135.642 239.197 196.387C292.641 257.132 300.027 292.904 300.027 292.904Z" fill="white"/>
</g>
<defs>
<clipPath id="clip0_952_19025">
<rect width="862.673" height="862.673" fill="white" transform="translate(-142.836 -143.336)"/>
</clipPath>
<clipPath id="clip1_952_19025">
<rect width="862.673" height="862.673" fill="white" transform="translate(-142.836 -143.336)"/>
</clipPath>
</defs>
</svg>
